# xmcd
# Track frame offsets:
# 150
# 13994
# 27456
# 45161
# 58572
# 74687
# 96098
# 112589
# 128232
# 141327
#
# Disc length: 2021 seconds
# Revision: 0
# Processed by: cddbd v1.5.1PL0 Copyright (c) Steve Scherf et al.
# Submitted via: VisiTrax 2.9.9.209 - For more info visit www.synapsa.com
#
DISCID=8707e30a
DTITLE=Cina - From country to country
DYEAR=2004
DGENRE=Country
TTITLE0=You got a funny way of showing it
TTITLE1=Don't tell me
TTITLE2=The lonely side
TTITLE3=Destination unknown
TTITLE4=Ready for your love
TTITLE5=No way at all
TTITLE6=My heart has a mind of its own
TTITLE7=It's not about love
TTITLE8=Get ready
TTITLE9=A new start
EXTD=
EXTT0=
EXTT1=
EXTT2=
EXTT3=
EXTT4=
EXTT5=
EXTT6=
EXTT7=
EXTT8=
EXTT9=
PLAYORDER=
